# Blender 4.1.1
# www.blender.org
mtllib curved screen4.mtl
o curved_screen2
v -0.000042 54.834873 -48.418301
v 25.007528 54.834873 -45.955257
v 25.497473 80.324654 -48.418259
v -0.000043 80.324646 -50.929527
v -0.000039 30.324650 -40.980949
v 23.556559 30.324650 -38.660851
v 25.007528 54.834873 -45.955257
v -0.000042 54.834873 -48.418301
v -0.000042 105.814430 -48.418301
v 25.007528 105.814430 -45.955257
v 23.556559 130.324646 -38.660866
v -0.000039 130.324646 -40.980965
v -0.000043 80.324646 -50.929527
v 25.497473 80.324654 -48.418259
v 25.007528 105.814430 -45.955257
v -0.000042 105.814430 -48.418301
v 25.007528 105.814430 -45.955257
v 49.054050 105.814430 -38.660835
v 46.207893 130.324646 -31.789648
v 23.556559 130.324646 -38.660866
v 25.497473 80.324654 -48.418259
v 50.015083 80.324654 -40.980911
v 49.054050 105.814430 -38.660835
v 25.007528 105.814430 -45.955257
v 25.007528 54.834873 -45.955257
v 49.054050 54.834869 -38.660831
v 50.015083 80.324654 -40.980911
v 25.497473 80.324654 -48.418259
v 23.556559 30.324650 -38.660851
v 46.207893 30.324652 -31.789635
v 49.054050 54.834869 -38.660831
v 25.007528 54.834873 -45.955257
v 46.207893 30.324652 -31.789635
v 67.083473 30.324652 -20.631401
v 71.215454 54.834869 -26.815302
v 49.054050 54.834869 -38.660831
v 49.054050 105.814430 -38.660835
v 71.215454 105.814430 -26.815311
v 67.083473 130.324646 -20.631414
v 46.207893 130.324646 -31.789648
v 50.015083 80.324654 -40.980911
v 72.610641 80.324654 -28.903280
v 71.215454 105.814430 -26.815311
v 49.054050 105.814430 -38.660835
v 49.054050 54.834869 -38.660831
v 71.215454 54.834869 -26.815302
v 72.610641 80.324654 -28.903280
v 50.015083 80.324654 -40.980911
v 71.215454 105.814430 -26.815311
v 90.640091 105.814438 -10.873940
v 85.381081 130.324646 -5.614974
v 67.083473 130.324646 -20.631414
v 72.610641 80.324654 -28.903280
v 92.415817 80.324654 -12.649611
v 90.640091 105.814438 -10.873940
v 71.215454 105.814430 -26.815311
v 71.215454 54.834869 -26.815302
v 90.640091 54.834877 -10.873935
v 92.415817 80.324654 -12.649611
v 72.610641 80.324654 -28.903280
v 67.083473 30.324652 -20.631401
v 85.381081 30.324654 -5.614958
v 90.640091 54.834877 -10.873935
v 71.215454 54.834869 -26.815302
v 85.381081 30.324654 -5.614958
v 100.397545 30.324656 12.682646
v 106.581474 54.834877 8.550703
v 90.640091 54.834877 -10.873935
v 90.640091 105.814438 -10.873940
v 106.581474 105.814438 8.550697
v 100.397545 130.324646 12.682634
v 85.381081 130.324646 -5.614974
v 92.415817 80.324654 -12.649611
v 108.669487 80.324654 7.155557
v 106.581474 105.814438 8.550697
v 90.640091 105.814438 -10.873940
v 90.640091 54.834877 -10.873935
v 106.581474 54.834877 8.550703
v 108.669487 80.324654 7.155557
v 92.415817 80.324654 -12.649611
v 106.581474 105.814438 8.550697
v 118.427010 105.814438 30.712103
v 111.555786 130.324646 33.558216
v 100.397545 130.324646 12.682634
v 108.669487 80.324654 7.155557
v 120.747078 80.324654 29.751131
v 118.427010 105.814438 30.712103
v 106.581474 105.814438 8.550697
v 106.581474 54.834877 8.550703
v 118.427010 54.834881 30.712111
v 120.747078 80.324654 29.751131
v 108.669487 80.324654 7.155557
v 100.397545 30.324656 12.682646
v 111.555786 30.324656 33.558231
v 118.427010 54.834881 30.712111
v 106.581474 54.834877 8.550703
v 118.427010 105.814438 30.712103
v 125.721436 105.814445 54.758625
v 118.426994 130.324646 56.209545
v 111.555786 130.324646 33.558216
v 120.747078 80.324654 29.751131
v 128.184387 80.324661 54.268738
v 125.721436 105.814445 54.758625
v 118.427010 105.814438 30.712103
v 118.427010 54.834881 30.712111
v 125.721436 54.834881 54.758633
v 128.184387 80.324661 54.268738
v 120.747078 80.324654 29.751131
v 111.555786 30.324656 33.558231
v 118.426994 30.324661 56.209560
v 125.721436 54.834881 54.758633
v 118.427010 54.834881 30.712111
v 125.721436 105.814445 54.758625
v 128.184464 105.814445 79.766174
v 120.747131 130.324646 79.766144
v 118.426994 130.324646 56.209545
v 128.184387 80.324661 54.268738
v 130.695679 80.324669 79.766197
v 128.184464 105.814445 79.766174
v 125.721436 105.814445 54.758625
v 125.721436 54.834881 54.758633
v 128.184464 54.834885 79.766174
v 130.695679 80.324669 79.766197
v 128.184387 80.324661 54.268738
v 118.426994 30.324661 56.209560
v 120.747131 30.324663 79.766151
v 128.184464 54.834885 79.766174
v 125.721436 54.834881 54.758633
v -0.000042 54.834873 -48.418301
v -0.000043 80.324646 -50.929527
v -25.497555 80.324654 -48.418236
v -25.007610 54.834866 -45.955235
v -0.000039 30.324650 -40.980949
v -0.000042 54.834873 -48.418301
v -25.007610 54.834866 -45.955235
v -23.556637 30.324650 -38.660828
v -0.000042 105.814430 -48.418301
v -0.000039 130.324646 -40.980965
v -23.556637 130.324646 -38.660843
v -25.007610 105.814430 -45.955242
v -0.000043 80.324646 -50.929527
v -0.000042 105.814430 -48.418301
v -25.007610 105.814430 -45.955242
v -25.497555 80.324654 -48.418236
v -25.007610 105.814430 -45.955242
v -23.556637 130.324646 -38.660843
v -46.207962 130.324646 -31.789625
v -49.054131 105.814430 -38.660797
v -25.497555 80.324654 -48.418236
v -25.007610 105.814430 -45.955242
v -49.054131 105.814430 -38.660797
v -50.015160 80.324654 -40.980873
v -25.007610 54.834866 -45.955235
v -25.497555 80.324654 -48.418236
v -50.015160 80.324654 -40.980873
v -49.054131 54.834869 -38.660793
v -23.556637 30.324650 -38.660828
v -25.007610 54.834866 -45.955235
v -49.054131 54.834869 -38.660793
v -46.207962 30.324652 -31.789612
v -46.207962 30.324652 -31.789612
v -49.054131 54.834869 -38.660793
v -71.215523 54.834869 -26.815264
v -67.083542 30.324652 -20.631363
v -49.054131 105.814430 -38.660797
v -46.207962 130.324646 -31.789625
v -67.083542 130.324646 -20.631376
v -71.215523 105.814430 -26.815273
v -50.015160 80.324654 -40.980873
v -49.054131 105.814430 -38.660797
v -71.215523 105.814430 -26.815273
v -72.610710 80.324654 -28.903242
v -49.054131 54.834869 -38.660793
v -50.015160 80.324654 -40.980873
v -72.610710 80.324654 -28.903242
v -71.215523 54.834869 -26.815264
v -71.215523 105.814430 -26.815273
v -67.083542 130.324646 -20.631376
v -85.381142 130.324646 -5.614913
v -90.640152 105.814438 -10.873878
v -72.610710 80.324654 -28.903242
v -71.215523 105.814430 -26.815273
v -90.640152 105.814438 -10.873878
v -92.415878 80.324654 -12.649557
v -71.215523 54.834869 -26.815264
v -72.610710 80.324654 -28.903242
v -92.415878 80.324654 -12.649557
v -90.640152 54.834877 -10.873874
v -67.083542 30.324652 -20.631363
v -71.215523 54.834869 -26.815264
v -90.640152 54.834877 -10.873874
v -85.381142 30.324654 -5.614897
v -85.381142 30.324654 -5.614897
v -90.640152 54.834877 -10.873874
v -106.581528 54.834877 8.550772
v -100.397591 30.324656 12.682714
v -90.640152 105.814438 -10.873878
v -85.381142 130.324646 -5.614913
v -100.397591 130.324646 12.682703
v -106.581528 105.814438 8.550766
v -92.415878 80.324654 -12.649557
v -90.640152 105.814438 -10.873878
v -106.581528 105.814438 8.550766
v -108.669533 80.324654 7.155626
v -90.640152 54.834877 -10.873874
v -92.415878 80.324654 -12.649557
v -108.669533 80.324654 7.155626
v -106.581528 54.834877 8.550772
v -106.581528 105.814438 8.550766
v -100.397591 130.324646 12.682703
v -111.555817 130.324646 33.558285
v -118.427040 105.814438 30.712183
v -108.669533 80.324654 7.155626
v -106.581528 105.814438 8.550766
v -118.427040 105.814438 30.712183
v -120.747116 80.324654 29.751207
v -106.581528 54.834877 8.550772
v -108.669533 80.324654 7.155626
v -120.747116 80.324654 29.751207
v -118.427040 54.834881 30.712191
v -100.397591 30.324656 12.682714
v -106.581528 54.834877 8.550772
v -118.427040 54.834881 30.712191
v -111.555817 30.324656 33.558300
v -118.427040 105.814438 30.712183
v -111.555817 130.324646 33.558285
v -118.427017 130.324646 56.209618
v -125.721458 105.814445 54.758709
v -120.747116 80.324654 29.751207
v -118.427040 105.814438 30.712183
v -125.721458 105.814445 54.758709
v -128.184418 80.324661 54.268822
v -118.427040 54.834881 30.712191
v -120.747116 80.324654 29.751207
v -128.184418 80.324661 54.268822
v -125.721458 54.834881 54.758717
v -111.555817 30.324656 33.558300
v -118.427040 54.834881 30.712191
v -125.721458 54.834881 54.758717
v -118.427017 30.324661 56.209629
v -125.721458 105.814445 54.758709
v -118.427017 130.324646 56.209618
v -120.747131 130.324646 79.766228
v -128.184464 105.814445 79.766258
v -128.184418 80.324661 54.268822
v -125.721458 105.814445 54.758709
v -128.184464 105.814445 79.766258
v -130.695679 80.324669 79.766281
v -125.721458 54.834881 54.758717
v -128.184418 80.324661 54.268822
v -130.695679 80.324669 79.766281
v -128.184464 54.834885 79.766258
v -118.427017 30.324661 56.209629
v -125.721458 54.834881 54.758717
v -128.184464 54.834885 79.766258
v -120.747131 30.324663 79.766243
vn -0.0009 -0.0009 1.0000
vn -0.1914 0.1939 0.9622
vn -0.1951 -0.0000 0.9808
vn -0.1917 0.1936 0.9622
vn -0.0000 -0.0000 1.0000
vn -0.0000 0.1940 0.9810
vn -0.1867 0.2904 0.9385
vn -0.1913 0.1940 0.9622
vn -0.0000 0.2904 0.9569
vn -0.1867 -0.2904 0.9385
vn -0.0000 -0.2904 0.9569
vn -0.0000 -0.1940 0.9810
vn -0.1914 -0.1940 0.9622
vn -0.1913 -0.1940 0.9622
vn -0.0000 -0.1939 0.9810
vn -0.0009 0.0009 1.0000
vn -0.1917 -0.1936 0.9622
vn -0.3662 -0.2904 0.8841
vn -0.1914 -0.1940 0.9621
vn -0.3754 -0.1940 0.9063
vn -0.3754 -0.1940 0.9064
vn -0.1914 -0.1939 0.9622
vn -0.1960 0.0009 0.9806
vn -0.3758 -0.1936 0.9063
vn -0.3827 -0.0000 0.9239
vn -0.1960 -0.0009 0.9806
vn -0.3754 0.1939 0.9063
vn -0.3758 0.1936 0.9063
vn -0.1914 0.1940 0.9622
vn -0.1914 0.1940 0.9621
vn -0.3662 0.2904 0.8841
vn -0.3754 0.1940 0.9063
vn -0.5316 0.2904 0.7957
vn -0.5450 0.1940 0.8157
vn -0.5316 -0.2904 0.7957
vn -0.5450 -0.1940 0.8157
vn -0.3754 -0.1939 0.9063
vn -0.3835 0.0009 0.9235
vn -0.5453 -0.1936 0.8156
vn -0.5556 -0.0000 0.8315
vn -0.3835 -0.0009 0.9235
vn -0.5450 0.1939 0.8157
vn -0.5453 0.1936 0.8156
vn -0.3755 0.1940 0.9063
vn -0.5316 -0.2904 0.7956
vn -0.6766 -0.2904 0.6767
vn -0.6936 -0.1940 0.6937
vn -0.5450 -0.1939 0.8157
vn -0.5563 0.0009 0.8310
vn -0.6940 -0.1936 0.6935
vn -0.7071 -0.0000 0.7071
vn -0.5563 -0.0009 0.8310
vn -0.6937 0.1939 0.6937
vn -0.6940 0.1936 0.6935
vn -0.5451 0.1940 0.8157
vn -0.6766 0.2904 0.6766
vn -0.6936 0.1940 0.6937
vn -0.6766 0.2904 0.6767
vn -0.5316 0.2904 0.7956
vn -0.8157 0.1940 0.5450
vn -0.7956 0.2904 0.5316
vn -0.6767 0.2904 0.6766
vn -0.6937 0.1940 0.6937
vn -0.8157 -0.1940 0.5450
vn -0.6766 -0.2904 0.6766
vn -0.6937 -0.1940 0.6936
vn -0.6767 -0.2904 0.6766
vn -0.7956 -0.2904 0.5316
vn -0.8310 0.0009 0.5563
vn -0.6937 -0.1939 0.6937
vn -0.6935 -0.1936 0.6940
vn -0.8315 -0.0000 0.5556
vn -0.8157 -0.1940 0.5451
vn -0.8310 -0.0009 0.5563
vn -0.6937 0.1940 0.6936
vn -0.8157 0.1939 0.5450
vn -0.6935 0.1936 0.6940
vn -0.9063 -0.1940 0.3754
vn -0.7957 -0.2904 0.5316
vn -0.8841 -0.2904 0.3662
vn -0.9235 0.0009 0.3835
vn -0.8157 -0.1939 0.5450
vn -0.8156 -0.1936 0.5453
vn -0.9239 -0.0000 0.3827
vn -0.9063 -0.1940 0.3755
vn -0.9235 -0.0009 0.3835
vn -0.9063 0.1939 0.3754
vn -0.8156 0.1936 0.5453
vn -0.9063 0.1940 0.3754
vn -0.7957 0.2904 0.5316
vn -0.8841 0.2904 0.3662
vn -0.9621 -0.1940 0.1914
vn -0.9385 -0.2904 0.1867
vn -0.9806 0.0009 0.1960
vn -0.9063 -0.1939 0.3754
vn -0.9063 -0.1936 0.3758
vn -0.9808 -0.0000 0.1951
vn -0.9622 -0.1940 0.1914
vn -0.9806 -0.0009 0.1960
vn -0.9064 0.1940 0.3754
vn -0.9622 0.1939 0.1914
vn -0.9063 0.1936 0.3758
vn -0.9621 0.1940 0.1914
vn -0.9385 0.2904 0.1867
vn -0.9765 -0.1931 0.0962
vn -0.9622 -0.1940 0.1913
vn -0.9527 -0.2891 0.0938
vn -0.9952 -0.0000 0.0980
vn -0.9622 -0.1939 0.1914
vn -0.9622 -0.1936 0.1917
vn -0.9953 -0.0000 0.0971
vn -0.9622 0.1940 0.1913
vn -0.9764 0.1931 0.0971
vn -0.9622 0.1936 0.1917
vn -0.9765 0.1931 0.0962
vn -0.9527 0.2891 0.0938
vn -0.9622 0.1940 0.1914
vn 0.0009 -0.0009 1.0000
vn 0.1913 0.1940 0.9622
vn -0.0000 0.1939 0.9810
vn 0.1917 0.1936 0.9622
vn 0.1951 -0.0000 0.9808
vn 0.1867 0.2904 0.9385
vn 0.1914 0.1940 0.9622
vn 0.1867 -0.2904 0.9385
vn 0.1914 -0.1940 0.9622
vn 0.1917 -0.1936 0.9622
vn 0.0009 0.0009 1.0000
vn 0.1914 -0.1939 0.9622
vn 0.3662 -0.2904 0.8841
vn 0.1914 -0.1940 0.9621
vn 0.3754 -0.1940 0.9063
vn 0.3758 -0.1936 0.9063
vn 0.1960 0.0009 0.9806
vn 0.3754 -0.1939 0.9063
vn 0.3827 -0.0000 0.9239
vn 0.1960 -0.0009 0.9806
vn 0.3754 0.1940 0.9064
vn 0.1914 0.1939 0.9622
vn 0.3758 0.1936 0.9063
vn 0.1914 0.1940 0.9621
vn 0.3662 0.2904 0.8841
vn 0.3754 0.1940 0.9063
vn 0.5316 0.2904 0.7957
vn 0.5450 0.1940 0.8157
vn 0.5316 -0.2904 0.7957
vn 0.5450 -0.1940 0.8157
vn 0.5453 -0.1936 0.8156
vn 0.3755 -0.1940 0.9063
vn 0.3835 0.0009 0.9235
vn 0.5450 -0.1939 0.8157
vn 0.5556 -0.0000 0.8315
vn 0.3835 -0.0009 0.9235
vn 0.3754 0.1939 0.9063
vn 0.5453 0.1936 0.8156
vn 0.6766 -0.2904 0.6767
vn 0.5316 -0.2904 0.7956
vn 0.6766 -0.2904 0.6766
vn 0.6936 -0.1940 0.6937
vn 0.6940 -0.1936 0.6935
vn 0.5451 -0.1940 0.8157
vn 0.5563 0.0009 0.8310
vn 0.6937 -0.1939 0.6937
vn 0.7071 -0.0000 0.7071
vn 0.5563 -0.0009 0.8310
vn 0.6936 0.1940 0.6937
vn 0.5450 0.1939 0.8157
vn 0.6940 0.1936 0.6935
vn 0.6766 0.2904 0.6767
vn 0.6937 0.1940 0.6937
vn 0.6766 0.2904 0.6766
vn 0.5316 0.2904 0.7956
vn 0.8157 0.1940 0.5450
vn 0.7956 0.2904 0.5316
vn 0.6767 0.2904 0.6766
vn 0.6937 0.1940 0.6936
vn 0.8157 -0.1940 0.5450
vn 0.6767 -0.2904 0.6766
vn 0.7956 -0.2904 0.5316
vn 0.6937 -0.1940 0.6936
vn 0.8310 0.0009 0.5563
vn 0.8157 -0.1939 0.5450
vn 0.6935 -0.1936 0.6940
vn 0.8315 -0.0000 0.5556
vn 0.8157 0.1940 0.5451
vn 0.6935 0.1936 0.6940
vn 0.8310 -0.0009 0.5563
vn 0.6937 0.1939 0.6937
vn 0.9063 -0.1940 0.3754
vn 0.7957 -0.2904 0.5316
vn 0.8841 -0.2904 0.3662
vn 0.9235 0.0009 0.3835
vn 0.9063 -0.1939 0.3754
vn 0.8156 -0.1936 0.5453
vn 0.9239 -0.0000 0.3827
vn 0.9063 0.1940 0.3755
vn 0.8156 0.1936 0.5453
vn 0.9235 -0.0009 0.3835
vn 0.8157 0.1939 0.5450
vn 0.9063 0.1940 0.3754
vn 0.8841 0.2904 0.3662
vn 0.7957 0.2904 0.5316
vn 0.9621 -0.1940 0.1914
vn 0.9385 -0.2904 0.1867
vn 0.9806 0.0009 0.1960
vn 0.9064 -0.1940 0.3754
vn 0.9622 -0.1939 0.1914
vn 0.9063 -0.1936 0.3758
vn 0.9808 -0.0000 0.1951
vn 0.9622 0.1940 0.1914
vn 0.9063 0.1936 0.3758
vn 0.9806 -0.0009 0.1960
vn 0.9063 0.1939 0.3754
vn 0.9621 0.1940 0.1914
vn 0.9385 0.2904 0.1867
vn 0.9765 -0.1931 0.0962
vn 0.9527 -0.2891 0.0938
vn 0.9622 -0.1940 0.1914
vn 0.9952 -0.0000 0.0980
vn 0.9622 -0.1940 0.1913
vn 0.9764 -0.1931 0.0971
vn 0.9622 -0.1936 0.1917
vn 0.9953 -0.0000 0.0971
vn 0.9765 0.1931 0.0962
vn 0.9622 0.1936 0.1917
vn 0.9622 0.1939 0.1914
vn 0.9527 0.2891 0.0938
vn 0.9622 0.1940 0.1913
vt 0.501708 0.502241
vt 0.561724 0.261285
vt 0.561977 0.502447
vt 0.501664 0.260986
vt 0.561380 0.018332
vt 0.501620 0.017937
vt 0.561556 0.986531
vt 0.501796 0.986531
vt 0.501752 0.743489
vt 0.561759 0.743592
vt 0.621498 0.986531
vt 0.621520 0.743695
vt 0.621542 0.502650
vt 0.621564 0.261587
vt 0.621587 0.018730
vt 0.682259 0.019128
vt 0.682203 0.261885
vt 0.682035 0.986531
vt 0.682091 0.743801
vt 0.682147 0.502856
vt 0.743126 0.986531
vt 0.743200 0.743905
vt 0.743273 0.503062
vt 0.743346 0.262191
vt 0.743420 0.019532
vt 0.805000 0.262496
vt 0.805083 0.019938
vt 0.804835 0.744011
vt 0.804752 0.986531
vt 0.804917 0.503271
vt 0.866987 0.744118
vt 0.866899 0.986531
vt 0.867075 0.503485
vt 0.867163 0.262809
vt 0.867252 0.020346
vt 0.929634 0.744228
vt 0.929542 0.986531
vt 0.929726 0.503698
vt 0.929818 0.263125
vt 0.929911 0.020758
vt 0.992696 0.744341
vt 0.992599 0.986531
vt 0.992792 0.503911
vt 0.992888 0.263448
vt 0.992986 0.021174
vt 0.441735 0.260688
vt 0.441711 0.502035
vt 0.441758 0.017547
vt 0.441664 0.986531
vt 0.441688 0.743386
vt 0.381088 0.986531
vt 0.381146 0.743279
vt 0.381204 0.501829
vt 0.381262 0.260386
vt 0.381320 0.017149
vt 0.320335 0.016748
vt 0.320259 0.260084
vt 0.320032 0.986531
vt 0.320108 0.743176
vt 0.320183 0.501623
vt 0.258474 0.986531
vt 0.258559 0.743070
vt 0.258644 0.501413
vt 0.258729 0.259779
vt 0.258815 0.016339
vt 0.196675 0.259470
vt 0.196766 0.015930
vt 0.196495 0.742963
vt 0.196404 0.986531
vt 0.196585 0.501200
vt 0.132078 0.742857
vt 0.133821 0.986531
vt 0.131309 0.500980
vt 0.132262 0.259157
vt 0.134197 0.015522
vt 0.070841 0.742747
vt 0.070743 0.986531
vt 0.070937 0.500774
vt 0.071034 0.258841
vt 0.071131 0.015106
vt 0.007347 0.742633
vt 0.007246 0.986531
vt 0.007447 0.500557
vt 0.007547 0.258510
vt 0.007648 0.014687
s 0
usemtl Material.001
f 4/1/1 2/2/2 3/3/3
f 2/2/4 4/1/5 1/4/6
f 8/4/6 6/5/7 7/2/8
f 6/5/7 8/4/6 5/6/9
f 11/7/10 12/8/11 9/9/12
f 11/7/10 9/9/12 10/10/13
f 15/10/14 16/9/15 13/1/16
f 15/10/17 13/1/5 14/3/3
f 19/11/18 20/7/10 17/10/19
f 19/11/18 17/10/19 18/12/20
f 23/12/21 24/10/22 21/3/23
f 23/12/24 21/3/3 22/13/25
f 28/3/26 26/14/27 27/13/25
f 26/14/28 28/3/3 25/2/29
f 32/2/30 30/15/31 31/14/32
f 30/15/31 32/2/30 29/5/7
f 36/14/32 34/16/33 35/17/34
f 34/16/33 36/14/32 33/15/31
f 39/18/35 40/11/18 37/12/20
f 37/12/20 38/19/36 39/18/35
f 43/19/36 44/12/37 41/13/38
f 43/19/39 41/13/25 42/20/40
f 48/13/41 46/17/42 47/20/40
f 46/17/43 48/13/25 45/14/44
f 52/18/45 49/19/36 51/21/46
f 49/19/36 50/22/47 51/21/46
f 55/22/47 56/19/48 53/20/49
f 55/22/50 53/20/40 54/23/51
f 60/20/52 58/24/53 59/23/51
f 58/24/54 60/20/40 57/17/55
f 64/17/34 62/25/56 63/24/57
f 62/25/58 64/17/34 61/16/59
f 67/26/60 65/25/56 66/27/61
f 65/25/62 67/26/60 68/24/63
f 70/28/64 72/21/65 69/22/66
f 72/21/67 70/28/64 71/29/68
f 74/30/69 76/22/70 73/23/51
f 76/22/71 74/30/72 75/28/73
f 79/30/74 77/24/75 78/26/76
f 77/24/77 79/30/72 80/23/51
f 82/31/78 84/29/79 81/28/64
f 84/29/79 82/31/78 83/32/80
f 86/33/81 88/28/82 85/30/72
f 88/28/83 86/33/84 87/31/85
f 91/33/86 89/26/60 90/34/87
f 89/26/88 91/33/84 92/30/72
f 95/34/89 93/27/90 94/35/91
f 93/27/90 95/34/89 96/26/60
f 98/36/92 100/32/80 97/31/78
f 100/32/80 98/36/92 99/37/93
f 102/38/94 104/31/95 101/33/84
f 104/31/96 102/38/97 103/36/98
f 107/38/99 105/34/100 106/39/101
f 105/34/102 107/38/97 108/33/84
f 111/39/103 109/35/91 110/40/104
f 109/35/91 111/39/103 112/34/89
f 114/41/105 116/37/93 113/36/106
f 116/37/93 114/41/105 115/42/107
f 118/43/108 120/36/109 117/38/97
f 120/36/110 118/43/111 119/41/105
f 123/43/108 121/39/112 122/44/113
f 121/39/114 123/43/108 124/38/97
f 127/44/115 125/40/104 126/45/116
f 125/40/104 127/44/115 128/39/117
f 130/1/118 132/46/119 129/4/120
f 132/46/121 130/1/5 131/47/122
f 134/4/6 136/48/123 133/6/9
f 136/48/123 134/4/6 135/46/124
f 139/49/125 137/9/12 138/8/11
f 137/9/12 139/49/125 140/50/126
f 143/50/127 141/1/5 142/9/12
f 141/1/128 143/50/129 144/47/122
f 147/51/130 145/50/131 146/49/125
f 145/50/131 147/51/130 148/52/132
f 151/52/133 149/47/122 150/50/126
f 149/47/134 151/52/135 152/53/136
f 154/47/137 156/54/138 153/46/139
f 156/54/140 154/47/122 155/53/136
f 158/46/141 160/55/142 157/48/123
f 160/55/142 158/46/141 159/54/143
f 162/54/143 164/56/144 161/55/142
f 164/56/144 162/54/143 163/57/145
f 167/58/146 165/52/132 166/51/130
f 165/52/132 167/58/146 168/59/147
f 171/59/148 169/53/136 170/52/149
f 169/53/150 171/59/151 172/60/152
f 174/53/153 176/57/145 173/54/154
f 176/57/155 174/53/136 175/60/152
f 179/61/156 177/59/147 178/58/157
f 177/59/147 179/61/158 180/62/159
f 183/62/160 181/60/152 182/59/161
f 181/60/162 183/62/163 184/63/164
f 186/60/165 188/64/166 185/57/167
f 188/64/168 186/60/152 187/63/164
f 192/65/169 190/57/145 191/64/170
f 190/57/145 192/65/171 189/56/172
f 195/66/173 196/67/174 193/65/175
f 195/66/173 193/65/171 194/64/176
f 200/68/177 198/61/178 199/69/179
f 198/61/178 200/68/177 197/62/180
f 204/70/181 202/62/180 203/68/182
f 202/62/183 204/70/184 201/63/164
f 207/70/184 208/66/185 205/64/186
f 207/70/187 205/64/188 206/63/164
f 212/71/189 210/69/190 211/72/191
f 210/69/190 212/71/189 209/68/177
f 216/73/192 214/68/177 215/71/193
f 214/68/194 216/73/195 213/70/184
f 219/73/195 220/74/196 217/66/197
f 219/73/198 217/66/199 218/70/184
f 223/74/200 224/75/201 221/67/202
f 223/74/200 221/67/202 222/66/173
f 228/76/203 226/72/191 227/77/204
f 226/72/191 228/76/203 225/71/189
f 232/78/205 230/71/206 231/76/207
f 230/71/208 232/78/209 229/73/195
f 235/78/209 236/79/210 233/74/211
f 235/78/212 233/74/213 234/73/195
f 239/79/214 240/80/215 237/75/201
f 239/79/214 237/75/201 238/74/200
f 244/81/216 242/77/204 243/82/217
f 242/77/204 244/81/216 241/76/218
f 248/83/219 246/76/220 247/81/221
f 246/76/222 248/83/219 245/78/209
f 251/83/223 252/84/224 249/79/225
f 251/83/219 249/79/226 250/78/209
f 255/84/224 256/85/227 253/80/215
f 255/84/224 253/80/215 254/79/228
